<svg xmlns="http://www.w3.org/2000/svg" width="29.26" height="29.25" viewBox="0 0 29.26 29.25">
  <g id="Icon_ionic-ios-home" data-name="Icon ionic-ios-home" transform="translate(-3.374 -3.375)">
    <path id="Path_12" data-name="Path 12" d="M18.176,7.32a.276.276,0,0,0-.352,0L6.855,16.095a.3.3,0,0,0-.105.218V32.484a.141.141,0,0,0,.141.141h7.594a.141.141,0,0,0,.141-.141V22.641a.141.141,0,0,1,.141-.141h6.469a.141.141,0,0,1,.141.141v9.844a.141.141,0,0,0,.141.141h7.594a.141.141,0,0,0,.141-.141V16.313a.284.284,0,0,0-.105-.218Z" fill="#355769"/>
    <path id="Path_13" data-name="Path 13" d="M32.252,14.358,18.963,3.713a1.543,1.543,0,0,0-1.927,0l-5.787,4.7V5.449a.141.141,0,0,0-.141-.141H6.891a.141.141,0,0,0-.141.141v6.483l-3,2.468a.984.984,0,0,0-.084,1.47.978.978,0,0,0,.7.288.991.991,0,0,0,.619-.218L17.909,5.534A.126.126,0,0,1,18,5.505a.17.17,0,0,1,.091.028L31.022,15.9a.991.991,0,0,0,.619.218,1,1,0,0,0,.991-1.041A1,1,0,0,0,32.252,14.358Z" fill="#355769"/>
  </g>
</svg>
