<svg xmlns="http://www.w3.org/2000/svg" width="22.506" height="29.257" viewBox="0 0 22.506 29.257">
  <path id="Icon_ionic-ios-hand" data-name="Icon ionic-ios-hand" d="M27.766,8.248A1.472,1.472,0,0,0,26.283,9.7v7.692a.626.626,0,0,1-1.252,0V6.04a1.484,1.484,0,0,0-2.967,0v8.916a.626.626,0,0,1-1.252,0V4.823a1.484,1.484,0,0,0-2.967,0V16.172a.626.626,0,0,1-1.252,0V7.256a1.484,1.484,0,0,0-2.967,0V22.605l-1.955-1.659c-1.835-1.6-3.389-2.278-4.655-1.1-.851.83.485,2.173,1.884,3.741,1.35,1.512,4.922,6.462,7.966,8.248a5.489,5.489,0,0,0,2.855.8h4.022c3.241,0,5.512-2.665,5.512-6.553V9.7A1.483,1.483,0,0,0,27.766,8.248Z" transform="translate(-6.751 -3.375)"/>
</svg>
