<svg xmlns="http://www.w3.org/2000/svg" width="31.01" height="31" viewBox="0 0 31.01 31">
  <g id="Group_5" data-name="Group 5" transform="translate(-0.49 -0.5)">
    <path id="Path_1" data-name="Path 1" d="M.51,29.5V4a1.5,1.5,0,0,1,3,0V3a1.267,1.267,0,0,1,.03-.28A1.492,1.492,0,0,1,5.01,1.5a1.455,1.455,0,0,1,1.01.4A1.472,1.472,0,0,1,6.51,3V2a1.5,1.5,0,0,1,3,0V4a1.5,1.5,0,0,1,3,0v8.03l2.2-2.98a1.548,1.548,0,0,1,2.34-.17,1.528,1.528,0,0,1,.45,1.09,1.558,1.558,0,0,1-.22.8l-4.2,7.01a4.009,4.009,0,0,0-.57,2.05V29.5a2,2,0,0,1-2,2h-8a2.006,2.006,0,0,1-2-2Z" fill="#eab54b"/>
    <path id="Path_2" data-name="Path 2" d="M9.521,10.5,9.51,4a1.467,1.467,0,0,1,.5-1.11V10.5Zm-3-1L6.51,2A1.467,1.467,0,0,1,7.01.89V9.5Zm-3-1L3.51,3a1.467,1.467,0,0,1,.5-1.11V8.5ZM.5,27.5.49,4a1.467,1.467,0,0,1,.5-1.11V27.5ZM15.88,8.93a1.07,1.07,0,0,0-.77.42l-2.2,2.98c-.13.18-.4-.3-.4-.3l2.2-2.98a1.541,1.541,0,0,1,1.525-.6C16.532,8.505,16.18,8.91,15.88,8.93Z" fill="#aeafb3"/>
    <path id="Path_3" data-name="Path 3" d="M2.5,26.5h8a2,2,0,0,1,2,2v3H.5v-3a2,2,0,0,1,2-2Z" transform="translate(13 58) rotate(180)" fill="#57565d"/>
    <path id="Path_4" data-name="Path 4" d="M.99,29.5v-4H.5v4a2,2,0,0,0,2,2h.49A2,2,0,0,1,.99,29.5Z" fill="#aeafb3"/>
    <path id="Path_5" data-name="Path 5" d="M31.48,2.5V28a1.5,1.5,0,1,1-3,0v1a1.267,1.267,0,0,1-.03.28,1.492,1.492,0,0,1-1.47,1.22,1.455,1.455,0,0,1-1.01-.4,1.472,1.472,0,0,1-.49-1.1v1a1.5,1.5,0,1,1-3,0V28a1.5,1.5,0,1,1-3,0V19.97l-2.2,2.98a1.548,1.548,0,0,1-2.34.17,1.528,1.528,0,0,1-.45-1.09,1.558,1.558,0,0,1,.22-.8l4.2-7.01a4.009,4.009,0,0,0,.57-2.05V2.5a2,2,0,0,1,2-2h8a2.006,2.006,0,0,1,2,2Z" fill="#eab54b"/>
    <path id="Path_6" data-name="Path 6" d="M22.469,21.5,22.48,28a1.467,1.467,0,0,1-.5,1.11V21.5Zm3,1L25.48,30a1.467,1.467,0,0,1-.5,1.11V22.5Zm3,1L28.48,29a1.467,1.467,0,0,1-.5,1.11V23.5Zm3.02-19L31.5,28a1.467,1.467,0,0,1-.5,1.11V4.5ZM16.11,23.07a1.07,1.07,0,0,0,.77-.42l2.2-2.98c.13-.18.4.3.4.3l-2.2,2.98a1.541,1.541,0,0,1-1.525.6C15.458,23.5,15.81,23.09,16.11,23.07Z" fill="#aeafb3"/>
    <path id="Path_7" data-name="Path 7" d="M21.49.5h8a2,2,0,0,1,2,2v3h-12v-3A2,2,0,0,1,21.49.5Z" fill="#57565d"/>
    <path id="Path_8" data-name="Path 8" d="M31,2.5v4h.49v-4a2,2,0,0,0-2-2H29A2,2,0,0,1,31,2.5Z" fill="#aeafb3"/>
  </g>
</svg>
