<svg xmlns="http://www.w3.org/2000/svg" xmlns:xlink="http://www.w3.org/1999/xlink" width="58" height="49" viewBox="0 0 58 49">
  <defs>
    <filter id="Rectangle_2" x="0" y="0" width="58" height="49" filterUnits="userSpaceOnUse">
      <feOffset dy="3" input="SourceAlpha"/>
      <feGaussianBlur stdDeviation="3" result="blur"/>
      <feFlood flood-color="#0b295d" flood-opacity="0.6"/>
      <feComposite operator="in" in2="blur"/>
      <feComposite in="SourceGraphic"/>
    </filter>
  </defs>
  <g id="Group_6" data-name="Group 6" transform="translate(-368 -82)">
    <g transform="matrix(1, 0, 0, 1, 368, 82)" filter="url(#Rectangle_2)">
      <g id="Rectangle_2-2" data-name="Rectangle 2" transform="translate(9 6)" fill="#e6eaec" stroke="#707070" stroke-width="1">
        <rect width="40" height="31" rx="7" stroke="none"/>
        <rect x="0.5" y="0.5" width="39" height="30" rx="6.5" fill="none"/>
      </g>
    </g>
    <g id="Icon_ionic-ios-menu" data-name="Icon ionic-ios-menu" transform="translate(379.5 85.875)">
      <path id="Path_9" data-name="Path 9" d="M30.375,12.375H5.625A1.128,1.128,0,0,1,4.5,11.25h0a1.128,1.128,0,0,1,1.125-1.125h24.75A1.128,1.128,0,0,1,31.5,11.25h0A1.128,1.128,0,0,1,30.375,12.375Z" fill="#0b295d"/>
      <path id="Path_10" data-name="Path 10" d="M30.375,19.125H5.625A1.128,1.128,0,0,1,4.5,18h0a1.128,1.128,0,0,1,1.125-1.125h24.75A1.128,1.128,0,0,1,31.5,18h0A1.128,1.128,0,0,1,30.375,19.125Z" fill="#0b295d"/>
      <path id="Path_11" data-name="Path 11" d="M30.375,25.875H5.625A1.128,1.128,0,0,1,4.5,24.75h0a1.128,1.128,0,0,1,1.125-1.125h24.75A1.128,1.128,0,0,1,31.5,24.75h0A1.128,1.128,0,0,1,30.375,25.875Z" fill="#0b295d"/>
    </g>
  </g>
</svg>
